<?xml version="1.0" encoding="UTF-8"?>
<svg id="Layer_2" data-name="Layer 2" xmlns="http://www.w3.org/2000/svg" viewBox="0 0 200 102.2">
  <defs>
    <style>
      .cls-1 {
        fill: #000;
      }

      .cls-1, .cls-2 {
        stroke-width: 0px;
      }

      .cls-2 {
        fill: #94ff2e;
      }
    </style>
  </defs>
  <g id="Off_Grid" data-name="Off Grid">
    <g>
      <g>
        <path class="cls-2" d="M148.9,0H51.1C22.88,0,0,22.88,0,51.1h0c0,28.22,22.88,51.1,51.1,51.1h97.8c28.22,0,51.1-22.88,51.1-51.1h0c0-28.22-22.88-51.1-51.1-51.1Z"/>
        <circle class="cls-1" cx="45.28" cy="51.1" r="34.07"/>
      </g>
      <g>
        <g>
          <path class="cls-1" d="M84.86,37.82v-8.7c0-7.84,4.92-12.08,12.58-12.08s12.58,4.24,12.58,12.03v8.75c0,7.84-4.92,12.03-12.58,12.03s-12.58-4.19-12.58-12.03ZM90.46,29.29v8.39c0,4.47,2.23,7.38,6.97,7.38s6.97-2.92,6.97-7.43v-8.39c0-4.51-2.23-7.43-6.97-7.43s-6.97,2.92-6.97,7.47Z"/>
          <path class="cls-1" d="M120.32,36.13v13.26h-5.51v-31.9h19.83v4.79h-14.31v9.07h11.8v4.79h-11.8Z"/>
          <path class="cls-1" d="M142.74,36.13v13.26h-5.51v-31.9h19.83v4.79h-14.31v9.07h11.8v4.79h-11.8Z"/>
        </g>
        <g>
          <path class="cls-1" d="M84.86,73.14v-8.7c0-7.84,4.92-12.08,12.58-12.08,6.75,0,10.66,3.69,11.07,9.39h-5.42c-.5-3.1-2.28-4.6-6.02-4.6-4.38,0-6.61,2.92-6.61,7.47v8.39c0,4.47,2.23,7.38,6.84,7.38,4.19,0,6.02-2.46,6.02-6.11v-1.55h-6.7v-4.74h11.9v5.51c0,8.11-3.65,11.67-11.48,11.67-7.29,0-12.17-4.19-12.17-12.03Z"/>
          <path class="cls-1" d="M118.68,84.71h-5.51v-31.9h10.07c7.52,0,11.48,3.33,11.48,9.21v1.69c0,4.06-2.23,6.93-6.24,8.2l7.52,12.81h-6.24l-6.61-11.9h-4.47v11.9ZM118.68,57.6v10.44h4.24c4.19,0,6.15-1.78,6.15-4.56v-1.28c0-2.78-1.78-4.6-6.15-4.6h-4.24Z"/>
          <path class="cls-1" d="M138.91,52.81h5.51v31.9h-5.51v-31.9Z"/>
          <path class="cls-1" d="M150.35,52.81h11.44c7.61,0,12.17,4.1,12.17,11.39v9.16c0,7.38-4.65,11.35-11.99,11.35h-11.62v-31.9ZM155.87,57.6v22.33h5.56c4.88,0,6.88-2.55,6.88-6.74v-8.8c0-4.15-2.19-6.79-6.93-6.79h-5.51Z"/>
        </g>
      </g>
    </g>
  </g>
</svg>